<svg xmlns="http://www.w3.org/2000/svg" viewBox="0 0 600 400" width="600" height="400">
  <defs>
    <linearGradient id="grad1" x1="0%" y1="0%" x2="100%" y2="100%">
      <stop offset="0%" style="stop-color:#2c486f"/>
      <stop offset="100%" style="stop-color:#3d5a80"/>
    </linearGradient>
  </defs>
  <rect width="600" height="400" fill="url(#grad1)"/>
  <text x="300" y="28" text-anchor="middle" fill="#faf8f5" font-family="system-ui,sans-serif" font-size="16" font-weight="600">EduLens Architecture  Gemini Live Agent Challenge</text>
  <rect x="50" y="50" width="180" height="100" rx="8" fill="#1e293b" stroke="#2a9d8f"/>
  <text x="140" y="80" text-anchor="middle" fill="#2a9d8f" font-size="12" font-weight="600">Frontend (React)</text>
  <text x="140" y="100" text-anchor="middle" fill="#94a3b8" font-size="10">Camera " Mic " Screen</text>
  <text x="140" y="118" text-anchor="middle" fill="#94a3b8" font-size="10">16kHz PCM in, 24kHz out</text>
  <rect x="240" y="175" width="120" height="50" rx="8" fill="#2c486f" stroke="#e76f51"/>
  <text x="300" y="200" text-anchor="middle" fill="#fff" font-size="11">WebSocket</text>
  <text x="300" y="215" text-anchor="middle" fill="#94a3b8" font-size="9">/ws</text>
  <rect x="230" y="250" width="200" height="120" rx="8" fill="#1e293b" stroke="#2a9d8f"/>
  <text x="330" y="278" text-anchor="middle" fill="#2a9d8f" font-size="12" font-weight="600">Google Cloud Run</text>
  <text x="330" y="298" text-anchor="middle" fill="#94a3b8" font-size="10">Express + WebSocket Proxy</text>
  <text x="330" y="315" text-anchor="middle" fill="#94a3b8" font-size="10">@google/genai SDK</text>
  <text x="330" y="332" text-anchor="middle" fill="#94a3b8" font-size="10">GEMINI_API_KEY</text>
  <line x1="300" y1="370" x2="300" y2="320" stroke="#475569" stroke-width="2"/>
  <polyline points="295,320 300,310 305,320" fill="none" stroke="#475569" stroke-width="2"/>
  <rect x="200" y="380" width="200" height="70" rx="8" fill="#2c486f" stroke="#2a9d8f"/>
  <text x="300" y="408" text-anchor="middle" fill="#2a9d8f" font-size="12" font-weight="600">Gemini Live API</text>
  <text x="300" y="425" text-anchor="middle" fill="#94a3b8" font-size="10">gemini-2.0-flash-exp " Barge-in " Vision</text>
  <line x1="140" y1="150" x2="300" y2="175" stroke="#475569" stroke-width="1"/>
  <line x1="300" y1="225" x2="300" y2="250" stroke="#475569" stroke-width="1"/>
  <text x="350" y="132" fill="#94a3b8" font-size="9">HTTPS/WSS</text>
</svg>
